<?xml version="1.0" encoding="UTF-8" standalone="no"?>
<!-- Created with Inkscape (http://www.inkscape.org/) -->

<svg
   version="1.1"
   id="svg1"
   width="1397"
   height="440.396"
   viewBox="0 0 1397 440.39599"
   xmlns="http://www.w3.org/2000/svg"
   xmlns:svg="http://www.w3.org/2000/svg">
  <defs
     id="defs1" />
  <g
     id="g1">
    <path
       style="fill:#ffffff"
       d="m 76.216553,387.39205 c -0.19569,-0.31705 -0.10003,-1.55455 0.21259,-2.75 0.41956,-1.60441 1.3318,-2.17354 3.48388,-2.17354 4.09893,0 9.29685,-2.37039 11.22056,-5.11687 1.47157,-2.10097 1.63069,-9.47839 1.63069,-75.60564 0,-71.62951 -0.0444,-73.3219 -1.97456,-75.25205 -2.0888,-2.0888 -4.3286,-2.81612 -10.02544,-3.2555 -2.99468,-0.23097 -3.5,-0.63088 -3.5,-2.76994 v -2.5 l 41.499997,0.33207 c 53.63344,0.42915 59.3505,1.38393 70.99946,11.85736 10.27722,9.24009 14.36851,24.43923 10.58833,39.33558 -3.03943,11.97732 -10.45615,20.14397 -23.22123,25.5692 -3.53372,1.50185 -6.27272,3.18732 -6.08666,3.74549 0.18605,0.55816 3.23669,1.99301 6.77919,3.18855 14.52369,4.90153 22.78239,11.69349 28.24778,23.231 3.01496,6.36464 3.19313,7.38241 3.19313,18.24075 0,10.55594 -0.23595,12.01081 -2.87417,17.72237 -3.21592,6.96227 -10.69945,14.74406 -17.53013,18.22881 -7.07826,3.61106 -18.77429,6.03311 -34.07767,7.05692 -16.28389,1.08941 -78.014407,1.80869 -78.565747,0.91544 z m 82.718237,-10.52293 c 6.37184,-2.05806 13.13371,-8.27708 16.51234,-15.1867 2.60498,-5.32743 2.79392,-6.55939 2.79344,-18.21391 -6.5e-4,-15.92806 -1.99868,-21.68238 -10.47003,-30.15373 -7.63389,-7.63389 -11.83483,-8.84627 -30.65259,-8.84627 -13.5014,0 -14.34504,0.11534 -15.41089,2.10689 -1.29718,2.42381 -0.86046,65.19372 0.47404,68.13397 0.77557,1.70878 5.14494,3.34603 11.08317,4.15299 5.45611,0.74144 20.92176,-0.45942 25.67052,-1.99324 z m -5.17052,-84.05264 c 5.64775,-2.60651 11.3017,-8.27893 14.20169,-14.24811 4.38177,-9.01919 3.52883,-30.5963 -1.5687,-39.68387 -2.70006,-4.81349 -9.45466,-10.02161 -14.89855,-11.4875 -5.64112,-1.51899 -27.19183,-0.87096 -28.93459,0.87007 -0.99421,0.99322 -1.36914,8.2825 -1.59455,31 -0.16208,16.33579 -0.0361,30.73342 0.27992,31.99473 0.87211,3.48058 3.95289,4.20957 16.51478,3.90777 9.11834,-0.21907 12.43195,-0.7064 16,-2.35309 z m 224.25,94.88778 -31.25,-0.26424 v -2.98576 c 0,-2.85683 0.18786,-2.98575 4.35078,-2.98575 6.12356,0 9.9759,-1.59014 11.95047,-4.93283 1.55,-2.62394 1.69875,-8.40075 1.69875,-65.97146 0,-39.86321 -0.35526,-63.09571 -0.96482,-63.09571 -1.71917,0 -0.0523,-4.31241 -43.29031,112 -5.0092,13.475 -9.55,25.08525 -10.09066,25.80056 -0.54066,0.7153 -2.07548,1.1653 -3.41071,1 -2.24986,-0.27854 -3.77604,-4.0363 -20.83525,-51.30056 -10.12415,-28.05 -21.44521,-59.65558 -25.1579,-70.23461 -3.98549,-11.35634 -7.27381,-19.24092 -8.02838,-19.25 -1.02723,-0.0124 -1.22346,12.73558 -1,64.96239 l 0.27803,64.97778 2.55375,2.55324 c 1.53165,1.53135 4.13318,2.76688 6.5,3.087 7.9183,1.071 8.44625,1.31623 8.44625,3.92325 v 2.48095 h -21 -21 v -3 c 0,-2.7671 0.27421,-3 3.53212,-3 4.60926,0 10.02671,-2.30716 11.38739,-4.8496 0.74573,-1.3934 1.08049,-24.67136 1.08049,-75.13241 v -73.11349 l -2.57694,-2.38822 c -1.59554,-1.4787 -4.54703,-2.70182 -7.75,-3.21165 -4.22248,-0.67212 -5.17306,-1.18921 -5.17306,-2.81403 0,-1.89925 0.78017,-2.00249 17,-2.24961 9.35,-0.14245 19.69284,0.0836 22.98409,0.50223 l 5.98409,0.76123 4.09407,9.99778 c 2.25174,5.49877 12.1589,31.93026 22.01591,58.73664 9.85701,26.80638 18.37184,48.6017 18.92184,48.43406 0.99321,-0.30274 16.79434,-41.49232 34.92137,-91.03126 5.20407,-14.22208 9.70558,-26.10196 10.00336,-26.39973 0.29777,-0.29777 10.44902,-0.76148 22.55834,-1.03045 l 22.01693,-0.48904 v 2.49948 c 0,2.27139 -0.47911,2.55497 -5.25,3.10746 -4.15241,0.48086 -5.82493,1.24501 -8,3.65507 l -2.75,3.04709 v 71.51635 c 0,76.90177 -0.008,76.77172 5.09445,79.50265 1.24508,0.66634 4.53968,1.49006 7.32134,1.83049 3.84143,0.47013 5.14343,1.0653 5.41467,2.47518 0.1964,1.02092 -0.0226,2.14592 -0.48668,2.5 -0.46408,0.35408 -14.90628,0.52487 -32.09378,0.37953 z"
       id="path1" />
    <path
       d="m 1312.193,423.82041 c -13.5847,-3.65735 -19.373,-9.61787 -19.373,-19.9496 0,-6.77922 2.1028,-10.80805 7.7001,-14.75341 2.4435,-1.72238 4.4428,-3.39794 4.4428,-3.72348 0,-0.32554 -1.3523,-1.39072 -3.0051,-2.36706 -3.8398,-2.2682 -5.9949,-6.45848 -5.9949,-11.65605 0,-6.64344 4.3035,-12.65427 11.75,-16.41152 1.7875,-0.90191 3.25,-1.89342 3.25,-2.20336 0,-0.30993 -1.9226,-2.43587 -4.2726,-4.72432 -5.881,-5.7272 -8.063,-10.69816 -8.5481,-19.47332 -0.538,-9.73196 1.1205,-15.19233 6.3964,-21.06047 9.7156,-10.80605 27.3015,-14.90637 42.3153,-9.8662 l 7.391,2.48119 4.2819,-2.88981 c 7.4869,-5.05286 18.4245,-8.29799 19.9033,-5.90522 0.875,1.41579 -1.465,15.93365 -2.6903,16.6909 -0.5167,0.31933 -2.165,-0.59355 -3.6629,-2.02863 -2.2211,-2.12802 -3.6816,-2.60924 -7.9187,-2.60924 -2.8574,0 -5.1953,0.42744 -5.1953,0.94987 0,0.52243 1.2901,2.88493 2.8668,5.25 4.2521,6.37785 5.4434,11.06548 4.9129,19.33129 -0.7194,11.20934 -5.7272,18.38812 -16.6723,23.89985 -8.5732,4.31736 -18.7015,5.55078 -27.9846,3.40797 -3.9665,-0.91557 -5.3532,-0.89269 -6.5592,0.10824 -2.2452,1.86339 -3.6294,7.74958 -2.5128,10.68626 1.7054,4.48553 6.0705,5.36558 26.6671,5.37629 17.6388,0.009 19.0913,0.15373 23.861,2.37471 8.6669,4.03567 12.0309,10.42961 11.1648,21.22039 -1.0967,13.66248 -11.024,23.12887 -29.2038,27.848 -7.5121,1.95 -26.0614,1.94818 -33.3097,-0.003 z m 37.0354,-7.42803 c 6.365,-3.01373 9.0415,-6.95029 9.4892,-13.95617 0.2737,-4.28436 -0.1073,-6.30231 -1.6553,-8.76685 -3.6299,-5.77891 -6.8241,-6.73057 -23.9185,-7.12616 -8.4255,-0.19498 -16.427,-0.0764 -17.7811,0.26339 -6.0458,1.51743 -8.5727,14.38459 -4.4224,22.51984 3.8906,7.6262 10.3212,10.15561 24.5226,9.64559 6.7744,-0.2433 10.1785,-0.88121 13.7655,-2.57964 z m -9.2257,-67.54218 c 1.6173,-0.83633 3.9516,-3.42383 5.1874,-5.75 1.9334,-3.63946 2.2486,-5.7637 2.2598,-15.22939 0.015,-12.96027 -1.7356,-18.75511 -7.0867,-23.4534 -2.9009,-2.54697 -4.3096,-3.0466 -8.5899,-3.0466 -4.66,0 -5.457,0.35422 -8.8699,3.9419 -2.6582,2.79439 -4.0687,5.42867 -4.8452,9.04922 -2.9353,13.68675 0.8935,29.59238 8.195,34.04437 3.8434,2.34345 9.71,2.53285 13.7495,0.4439 z m -804.03969,38.44903 c -21.60871,-2.42575 -37.6842,-17.62406 -44.19653,-41.78489 -1.63417,-6.06281 -2.06024,-10.64221 -2.06024,-22.14353 0,-17.17904 1.83685,-25.54322 8.36528,-38.09169 13.46273,-25.87706 41.95854,-35.84261 66.6512,-23.30926 7.19932,3.65419 7.52991,3.72536 8.85933,1.90726 0.75953,-1.03871 1.38096,-2.28386 1.38096,-2.76699 0,-0.48313 1.0125,-0.73462 2.25,-0.55887 2.18346,0.3101 2.28942,0.86341 3.58285,18.70933 1.42243,19.6259 1.28435,20.47277 -3.23917,19.86595 -1.47703,-0.19814 -2.28052,-1.83209 -3.56797,-7.25573 -2.24471,-9.45628 -5.04667,-15.40892 -9.66304,-20.5287 -7.26238,-8.05435 -17.19232,-10.13124 -26.86267,-5.61845 -10.0549,4.69224 -17.08624,16.03722 -20.6648,33.34239 -1.73286,8.37969 -1.95373,12.27562 -1.51965,26.80476 0.53467,17.89627 1.74844,24.507 6.24941,34.03727 7.29595,15.44832 21.65295,22.01516 36.82737,16.84472 6.8337,-2.32848 15.62669,-10.80467 18.9953,-18.31095 2.57461,-5.73698 2.79466,-5.9451 5.15094,-4.87151 3.20732,1.46135 3.10498,3.19317 -0.63045,10.66842 -4.10896,8.22276 -11.32799,15.46969 -19.04622,19.11984 -5.53446,2.61738 -8.10817,3.24853 -17.8619,4.38023 -1.375,0.15954 -5.425,-0.0383 -9,-0.4396 z m 88.5,-1.27528 c -7.55816,-1.96678 -12.54862,-4.92863 -17.84534,-10.59125 -7.74407,-8.27904 -11.65466,-19.59433 -11.65466,-33.72277 0,-29.3686 15.75812,-46.33912 43.0286,-46.33912 22.65334,0 37.08253,13.88569 40.29939,38.78144 2.9729,23.00774 -6.95328,43.72977 -24.08133,50.27253 -7.11779,2.71894 -22.30576,3.53543 -29.74666,1.59917 z m 17.79774,-5.00418 c 4.64754,-1.94187 9.37018,-7.79946 11.19457,-13.88487 2.62622,-8.75993 3.73317,-24.91492 2.53177,-36.94878 -1.61572,-16.1838 -5.13935,-24.30298 -12.08501,-27.8464 -10.44224,-5.32723 -20.2261,0.75141 -24.51191,15.22907 -2.40605,8.12774 -2.74592,38.39281 -0.51997,46.30202 4.27387,15.18578 12.91919,21.52417 23.39055,17.14896 z m 166.20222,5.61828 c -3.7528,-0.93964 -7.3258,-4.27599 -9.6642,-9.02422 -2.283,-4.63585 -2.3431,-5.49434 -2.6576,-37.99302 l -0.3218,-33.25 h -4.9282 c -4.5051,0 -4.9282,-0.2016 -4.9282,-2.34813 0,-1.77927 0.9869,-2.79315 4.0738,-4.18515 7.6827,-3.46441 14.3952,-13.45145 19.301,-28.71672 0.3722,-1.15812 1.5877,-1.75 3.5938,-1.75 h 3.0314 v 15 15 h 10.5634 10.5633 l -0.3133,3.11028 -0.3134,3.11027 -10,0.13973 -10,0.13972 -0.2796,32 c -0.1537,17.6 -0.036,33.00005 0.2622,34.22232 0.9023,3.70234 4.4942,6.27768 8.7556,6.27768 4.366,0 9.177,-2.14464 10.6555,-4.74998 0.941,-1.65835 1.0847,-1.65949 2.7422,-0.0218 1.664,1.6441 1.6021,1.9099 -1.2721,5.46097 -4.8722,6.01975 -10.3091,8.33173 -19.2711,8.19481 -4.176,-0.0638 -8.4927,-0.34135 -9.5927,-0.61676 z m 122,-0.13958 c -10.7388,-2.83889 -15.8291,-9.74695 -15.9367,-21.62766 -0.08,-8.78512 2.9725,-15.50746 9.1512,-20.15626 4.653,-3.50094 15.9888,-8.21813 29.7855,-12.39469 l 9,-2.7245 v -9.04239 c 0,-10.04719 -1.1312,-12.60453 -7.4898,-16.93216 -4.9387,-3.36123 -8.5535,-2.9437 -12.9865,1.5 -2.9315,2.9386 -4.1441,5.31872 -5.6038,11 l -1.8629,7.25 h -3.8961 c -5.4121,0 -11.6609,-6.05841 -11.6609,-11.30563 0,-16.68601 41.7169,-22.94748 55.8176,-8.3779 6.28579,6.49484 6.57049,8.14274 7.15309,41.40036 0.4724,26.97016 0.7167,30.40393 2.2732,31.95821 1.4846,1.48242 2.3448,1.58101 5.7843,0.66296 3.5778,-0.95499 4.1562,-0.86199 5.0523,0.81245 1.3316,2.48815 0.9362,2.97733 -4.7574,5.88579 -3.703,1.89159 -6.3754,2.46376 -11.5074,2.46376 -6.05679,0 -6.98169,-0.28167 -9.85069,-3 -1.7414,-1.65 -3.5735,-4.04834 -4.0712,-5.32965 l -0.9049,-2.32965 -3.9149,3.10071 c -2.1533,1.7054 -5.9901,4.01862 -8.5263,5.1405 -5.03,2.22504 -16.2458,3.31516 -21.0477,2.04575 z m 26.5875,-12.40768 c 5.3399,-3.5985 5.8814,-5.61585 5.8978,-21.96998 0.015,-14.64098 0,-14.74982 -2.2353,-14.72626 -3.0959,0.0326 -13.1017,4.25501 -17.8019,7.51224 -7.3582,5.09922 -10.8012,16.09306 -7.5083,23.97424 3.0331,7.2592 14.5085,10.02088 21.6477,5.20976 z m 67.21443,11.23172 c -11.501,-4.54173 -19.7887,-15.74363 -22.8521,-30.88772 -3.98034,-19.6777 1.6656,-39.2453 14.3424,-49.70708 13.2012,-10.89451 35.1146,-12.3873 49.1046,-3.34511 10.4982,6.78527 11.5584,10.79608 4.6737,17.68074 -4.0343,4.03435 -4.8081,4.40164 -8.6762,4.11842 l -4.2468,-0.31095 -1.1272,-5.5 c -2.2305,-10.88362 -6.3573,-15.94079 -13.0383,-15.97776 -11.6603,-0.0645 -19.4347,15.02325 -19.4673,37.78035 -0.033,22.65497 6.5297,35.06991 20.1505,38.12239 8.0097,1.79503 15.7822,-1.35787 22.8514,-9.26969 2.1387,-2.39358 3.1519,-2.8298 5.313,-2.2874 1.4687,0.36862 2.6703,1.36358 2.6703,2.21102 0,2.9473 -10.1273,12.35845 -16.8719,15.67882 -5.9507,2.92949 -7.5165,3.24888 -17.0895,3.48581 -8.6943,0.21519 -11.4482,-0.0984 -15.7366,-1.79184 z m 76.2567,-0.1682 c -2.5282,-1.46481 -4.7877,-3.92873 -6.3021,-6.87238 -2.3019,-4.47422 -2.3761,-5.42996 -2.9676,-38.25 l -0.6067,-33.66112 h -4.8412 c -4.4972,0 -4.8411,-0.1776 -4.8411,-2.5 0,-1.43166 0.5767,-2.5 1.3495,-2.5 2.4712,0 9.5637,-5.48802 12.8267,-9.92489 1.7716,-2.40909 4.687,-8.02403 6.4787,-12.47764 2.991,-7.43512 3.5064,-8.1231 6.3013,-8.41083 l 3.0438,-0.31336 v 14.56336 14.56336 h 10 10 v 3.5 3.5 h -10 -10 v 32.54966 c 0,39.11803 0.083,39.45034 9.8593,39.45034 3.6732,0 7.491,-1.87055 9.9005,-4.85081 1.1248,-1.39127 1.4219,-1.39605 2.7733,-0.0446 1.3514,1.35139 1.2164,1.89713 -1.2598,5.09403 -5.2204,6.73975 -8.5486,8.26794 -18.697,8.58493 -7.9416,0.24806 -9.569,-0.002 -13.0176,-2 z m -413.55859,-2.13152 c 0,-1.96823 0.63376,-2.49314 3.58923,-2.97275 6.69042,-1.0857 6.41077,0.51132 6.41077,-36.61055 0,-25.86127 -0.29852,-34.09467 -1.28509,-35.44388 -0.71031,-0.97141 -3.17026,-2.01032 -5.5,-2.3228 -3.54005,-0.47482 -4.21491,-0.92641 -4.21491,-2.82044 0,-1.98424 0.75068,-2.38498 6.25,-3.33646 3.4375,-0.59475 8.725,-1.34452 11.75,-1.66615 3.025,-0.32164 6.7375,-0.82173 8.25,-1.11133 2.73149,-0.52299 2.75,-0.48937 2.75,4.99391 0,3.03624 0.42566,5.78351 0.94591,6.10504 0.52025,0.32153 3.33275,-1.23048 6.25,-3.44891 9.68576,-7.36557 24.31165,-10.9272 31.87675,-7.76245 5.2492,2.1959 10.3995,7.12552 13.0666,12.50654 2.2802,4.60062 2.3631,5.67262 2.8546,36.90721 0.2783,17.69293 0.8064,32.46826 1.1735,32.83408 0.3671,0.36581 2.5046,0.91153 4.75,1.21271 3.4734,0.46588 4.0826,0.90097 4.0826,2.91592 v 2.36833 h -19.5 -19.5 v -2.5 c 0,-2.23684 0.4082,-2.5 3.8776,-2.5 2.1326,0 4.4068,-0.63777 5.0537,-1.41728 0.8606,-1.03696 1.0948,-9.70345 0.8725,-32.29644 -0.2702,-27.46782 -0.4982,-31.17554 -2.0632,-33.56191 -2.6298,-4.00991 -7.4227,-6.13211 -13.74059,-6.08413 -6.29891,0.0478 -10.11972,1.75247 -14.76469,6.58724 l -3.26472,3.39811 0.26472,30.92791 0.26472,30.92791 4.80408,0.87736 c 4.11687,0.75185 4.76058,1.18232 4.5,3.00929 -0.29711,2.08305 -0.75697,2.13816 -20.05408,2.40308 l -19.75,0.27114 z m 159.71046,0.34902 c -0.6188,-2.36627 -0.4024,-2.52273 4.7872,-3.46144 2.1987,-0.39772 4.3294,-1.24432 4.7347,-1.88134 1.178,-1.8514 0.9261,-67.49348 -0.2676,-69.72396 -0.7354,-1.37404 -2.1111,-1.9387 -4.75,-1.94957 -4.5821,-0.0189 -6.5206,-1.15834 -6.0579,-3.56085 0.2291,-1.18953 1.6282,-2.10132 3.9715,-2.58819 6.337,-1.31663 24.8718,-3.50214 25.3811,-2.99279 0.2698,0.26976 0.4905,2.81547 0.4905,5.65714 0,2.84167 0.2956,5.46227 0.6569,5.82357 0.3613,0.3613 3.2962,-2.00707 6.522,-5.26305 6.4842,-6.54478 10.9589,-8.57364 17.0943,-7.7507 5.977,0.80168 9.8675,5.09918 10.491,11.58853 0.4675,4.86517 0.3159,5.25684 -3.5202,9.09291 -5.5798,5.57986 -8.0926,5.38012 -12.0316,-0.9564 -4.8456,-7.79507 -9.6513,-7.68718 -15.6506,0.35133 -1.9832,2.65726 -2.0544,3.87191 -1.8668,31.8475 0.1545,23.04458 0.4786,29.36844 1.5604,30.45025 0.7509,0.75096 3.7007,1.64196 6.555,1.98001 4.6137,0.54642 5.1896,0.87661 5.1896,2.97534 v 2.36071 h -21.3834 c -20.5388,0 -21.404,-0.0789 -21.9061,-1.999 z m 296.28943,-0.47986 c 0,-2.00457 0.4989,-2.52114 2.4349,-2.52114 1.3392,0 3.5892,-0.43886 5,-0.97525 l 2.5651,-0.97525 -0.015,-34.27475 c -0.01,-18.85111 -0.3798,-34.84914 -0.8253,-35.55118 -0.4456,-0.70204 -3.1387,-1.55222 -5.9847,-1.88929 -4.5479,-0.53863 -5.1747,-0.89022 -5.1747,-2.90267 0,-1.96163 0.764,-2.44841 5.3304,-3.39639 2.9317,-0.60862 10.1317,-1.68973 16,-2.40247 l 10.6693,-1.29589 v 40.20913 c 0,44.18013 -0.3092,42.04274 6.2361,43.1049 2.7247,0.44216 3.3827,0.98797 3.257,2.70161 -0.1546,2.10858 -0.5139,2.15241 -19.8253,2.41864 l -19.6678,0.27114 z m 49,-0.0211 c 0,-2.06661 0.4815,-2.5 2.7775,-2.5 1.5276,0 3.7776,-0.70052 5,-1.5567 2.222,-1.55632 2.2225,-1.56501 2.2225,-35.2775 0,-38.31693 0.028,-38.1658 -7.0567,-38.1658 -3.4918,0 -3.9433,-0.2738 -3.9433,-2.39159 0,-1.64668 0.7008,-2.56696 2.25,-2.95462 1.8183,-0.45499 24.8008,-3.65379 26.2516,-3.65379 0.2195,0 0.7046,2.7 1.0779,6 0.3734,3.3 0.8935,6 1.1558,6 0.2623,0 2.1905,-1.3572 4.2849,-3.016 6.2244,-4.92984 14.5344,-8.21917 22.139,-8.76328 8.4754,-0.60641 13.9636,1.27179 19.1031,6.53757 6.6591,6.8227 7.0434,9.02196 7.6742,43.91085 0.3099,17.14303 0.8638,31.46836 1.2309,31.83408 0.3671,0.36572 2.5046,0.91135 4.75,1.21253 3.4734,0.46588 4.0826,0.90097 4.0826,2.91592 v 2.36829 h -19.5 -19.5 v -2.5 c 0,-2.11111 0.4667,-2.5 3,-2.5 1.6715,0 3.89,-0.88997 5.0097,-2.00971 1.9117,-1.91166 2.0038,-3.21673 1.8886,-26.75 -0.153,-31.25625 -0.7856,-36.58915 -4.8184,-40.62196 -2.5943,-2.59428 -3.9177,-3.07689 -9.3935,-3.42556 -7.1848,-0.4575 -11.0099,0.96564 -16.4364,6.11535 l -3.25,3.08421 v 30.82859 30.82858 l 2.5651,0.97525 c 1.4108,0.53639 3.6608,0.97525 5,0.97525 1.9306,0 2.4349,0.51782 2.4349,2.5 v 2.5 h -20 -20 z m -35.6745,-101.95913 c -7.9403,-3.45386 -9.6911,-15.02145 -3.2486,-21.46395 3.8819,-3.88182 8.6121,-4.79287 13.3101,-2.56351 9.673,4.59014 9.9993,18.59232 0.5513,23.65932 -4.0238,2.15804 -6.3152,2.23752 -10.6128,0.36814 z"
       style="fill:#ffffff"
       id="path1-3" />
    <path
       d="M 22.986146,230.11125 C 16.019656,228.08059 9.7964658,219.0416 9.7803158,210.93018 c -0.0103,-5.16813 2.8543202,-8.42103 20.2158302,-22.95592 23.81896,-19.94101 48.610677,-40.78589 173.686844,-146.035899 20.12546,-16.93532 37.35224,-31.2242 38.28174,-31.75307 1.36978,-0.7793908 7.24361,3.66041 31,23.43172 16.1205,13.41632 29.6475,24.19114 30.06,23.94405 0.4125,-0.24709 0.75,-5.11317 0.75,-10.81351 0,-9.54926 0.1933,-10.59399 2.4582,-13.28566 4.90199,-5.82569 19.15876,-10.22983 33.0418,-10.20713 11.92197,0.0195 25.62633,4.19232 30.81766,9.38364 1.47528,1.47529 2.78233,2.77439 2.90453,2.88689 0.12221,0.1125 0.45971,18.86793 0.75,41.67872 l 0.52781,41.474169 27,22.88782 c 14.85,12.58831 37.20891,31.43524 49.68647,41.88207 14.62488,12.24468 23.24207,20.16507 24.25,22.28913 3.64228,7.67553 0.97853,15.89576 -6.88363,21.24264 -5.34345,3.63396 -11.04114,4.28711 -15.78957,1.81003 -2.85142,-1.48748 -37.28753,-29.5726 -144.76327,-118.06482 -46.0508,-37.916819 -64.1223,-52.495209 -65.07353,-52.495209 -0.59345,0 -29.73219,23.772873 -64.75274,52.828599 C 60.600266,208.41948 36.286126,228.41205 34.274736,229.19576 c -3.91459,1.52527 -8.04694,1.8604 -11.28859,0.91549 z"
       style="fill:#55d400"
       id="path1-1" />
  </g>
</svg>
